<svg xmlns="http://www.w3.org/2000/svg" width="63.566" height="74.147" viewBox="0 0 63.566 74.147">
  <g id="Group" transform="translate(0.783 1.074)">
    <path id="Shape" d="M34.9,24.812H28.7V7.089A7.007,7.007,0,0,0,21.779,0H7.936V24.812h-6.2a1.731,1.731,0,0,0-1.6,1.094,1.8,1.8,0,0,0,.376,1.932L18.318,46.08,36.129,27.839a1.8,1.8,0,0,0,.376-1.932A1.731,1.731,0,0,0,34.9,24.812Z" transform="translate(25.364 25.92)" fill="none" stroke="#333" stroke-miterlimit="10" stroke-width="1.5"/>
    <path id="Shape-2" data-name="Shape" d="M1.728,21.268h6.2V38.991a7.008,7.008,0,0,0,6.923,7.089H28.7V21.268H34.9a1.731,1.731,0,0,0,1.6-1.094,1.8,1.8,0,0,0-.376-1.932L18.314,0,.508,18.241a1.8,1.8,0,0,0-.377,1.93A1.731,1.731,0,0,0,1.728,21.268Z" fill="none" stroke="#333" stroke-miterlimit="10" stroke-width="1.5"/>
  </g>
</svg>
