<svg width="90" height="90" viewBox="0 0 90 90" fill="none" xmlns="http://www.w3.org/2000/svg">
<path fill-rule="evenodd" clip-rule="evenodd" d="M45 90C69.8528 90 90 69.8528 90 45C90 20.1472 69.8528 0 45 0C20.1472 0 0 20.1472 0 45C0 69.8528 20.1472 90 45 90ZM45 85.6713C22.5378 85.6713 4.32866 67.4622 4.32866 45C4.32866 22.5378 22.5378 4.32866 45 4.32866C67.4622 4.32866 85.6713 22.5378 85.6713 45C85.6713 67.4622 67.4622 85.6713 45 85.6713ZM42.8357 52.0453V24.7094C42.8357 23.5141 43.8047 22.5451 45 22.5451C46.1953 22.5451 47.1643 23.5141 47.1643 24.7094V52.0453C47.1643 53.2407 46.1953 54.2097 45 54.2097C43.8047 54.2097 42.8357 53.2407 42.8357 52.0453ZM45 66.3277C46.8179 66.3277 48.2916 64.854 48.2916 63.0361C48.2916 61.2182 46.8179 59.7445 45 59.7445C43.1821 59.7445 41.7084 61.2182 41.7084 63.0361C41.7084 64.854 43.1821 66.3277 45 66.3277Z" fill="#333333"/>
<mask id="mask0_0_897" style="mask-type:alpha" maskUnits="userSpaceOnUse" x="0" y="0" width="90" height="90">
<path fill-rule="evenodd" clip-rule="evenodd" d="M45 90C69.8528 90 90 69.8528 90 45C90 20.1472 69.8528 0 45 0C20.1472 0 0 20.1472 0 45C0 69.8528 20.1472 90 45 90ZM45 85.6713C22.5378 85.6713 4.32866 67.4622 4.32866 45C4.32866 22.5378 22.5378 4.32866 45 4.32866C67.4622 4.32866 85.6713 22.5378 85.6713 45C85.6713 67.4622 67.4622 85.6713 45 85.6713ZM42.8357 52.0453V24.7094C42.8357 23.5141 43.8047 22.5451 45 22.5451C46.1953 22.5451 47.1643 23.5141 47.1643 24.7094V52.0453C47.1643 53.2407 46.1953 54.2097 45 54.2097C43.8047 54.2097 42.8357 53.2407 42.8357 52.0453ZM45 66.3277C46.8179 66.3277 48.2916 64.854 48.2916 63.0361C48.2916 61.2182 46.8179 59.7445 45 59.7445C43.1821 59.7445 41.7084 61.2182 41.7084 63.0361C41.7084 64.854 43.1821 66.3277 45 66.3277Z" fill="white"/>
</mask>
<g mask="url(#mask0_0_897)">
<rect x="-9" y="-9" width="108" height="108" fill="#E60000"/>
</g>
</svg>
