<svg xmlns="http://www.w3.org/2000/svg" width="320" height="75.001" viewBox="0 0 320 75.001">
  <g id="Combined_Shape_Kicka" data-name="Combined Shape Kicka" transform="translate(0 0)">
    <g id="Combined_Shape_2" data-name="Combined Shape 2">
      <g id="Combined_Shape" data-name="Combined Shape" transform="translate(0 -0.001)" fill="#fff" stroke-miterlimit="10">
        <path d="M 319.4254150390625 74.42558288574219 L 0.5749900341033936 74.42558288574219 L 0.5749900341033936 11.50108432769775 C 0.5749900341033936 8.582918167114258 1.711406707763672 5.839376449584961 3.774948358535767 3.775834560394287 C 5.838490009307861 1.712334513664246 8.58203125 0.5759178996086121 11.50019836425781 0.5759178996086121 L 106.7513427734375 0.5759178996086121 C 109.9424667358398 1.756325602531433 112.6625137329102 3.928854703903198 114.8374481201172 7.034751415252686 C 116.8946533203125 9.972542762756348 118.3717422485352 13.67645931243896 119.1090316772461 17.74608421325684 C 122.7174072265625 37.66475296020508 139.5324554443359 51.57621002197266 160.0001983642578 51.57621002197266 C 180.4680328369141 51.57621002197266 197.1641540527344 37.96254348754883 201.5464019775391 17.7003345489502 C 202.9042510986328 11.42490863800049 206.0532684326172 3.374355792999268 213.3446502685547 0.5759178996086121 L 308.5001831054688 0.5759178996086121 C 311.4183654785156 0.5759178996086121 314.1618957519531 1.712334513664246 316.2254333496094 3.775834560394287 C 318.2890014648438 5.839376449584961 319.4254150390625 8.582918167114258 319.4254150390625 11.50108432769775 L 319.4254150390625 74.42558288574219 Z" stroke="none"/>
        <path d="M 318.8504028320312 73.8505859375 L 318.8504028320312 11.50108432769775 C 318.8504028320312 8.736501693725586 317.7737731933594 6.13733434677124 315.8188781738281 4.182417869567871 C 313.8639526367188 2.227542877197266 311.2647705078125 1.150917887687683 308.5001831054688 1.150917887687683 L 213.4523162841797 1.150917887687683 C 206.4700164794922 3.892475605010986 203.4300231933594 11.71388244628906 202.1084136962891 17.82187652587891 C 197.6675262451172 38.3553352355957 180.7455291748047 52.15121078491211 160.0001983642578 52.15121078491211 C 139.2496948242188 52.15121078491211 122.2019882202148 38.04545974731445 118.5432434082031 17.84858512878418 C 117.8206558227539 13.86012649536133 116.3763656616211 10.23479270935059 114.3664474487305 7.364584445953369 C 112.2817764282227 4.387586116790771 109.6855926513672 2.297963380813599 106.6473922729492 1.150917887687683 L 11.50019836425781 1.150917887687683 C 8.735614776611328 1.150917887687683 6.136448383331299 2.227542877197266 4.18153190612793 4.182417869567871 C 2.226614952087402 6.13733434677124 1.149990081787109 8.736501693725586 1.149990081787109 11.50108432769775 L 1.149990081787109 73.8505859375 L 318.8504028320312 73.8505859375 M 320.0003967285156 75.0015869140625 L 320.0003967285156 75.00058746337891 L -9.969075108529069e-06 75.00058746337891 L -9.969075108529069e-06 11.50108432769775 C -9.969075108529069e-06 8.42933464050293 1.196240067481995 5.541376113891602 3.368365049362183 3.369251251220703 C 5.54049015045166 1.197167873382568 8.428406715393066 0.0009178873733617365 11.50019836425781 0.0009178873733617365 L 106.8533630371094 0.0009178873733617365 C 110.198486328125 1.214376211166382 113.0430755615234 3.469876289367676 115.3084487915039 6.704917907714844 C 117.4129486083984 9.710250854492188 118.9228210449219 13.492751121521 119.6748199462891 17.64358520507812 C 123.232780456543 37.28404235839844 139.8151550292969 51.0012092590332 160.0001983642578 51.0012092590332 C 180.1905364990234 51.0012092590332 196.6608276367188 37.56975173950195 200.9844055175781 17.57879257202148 C 202.3784942626953 11.13579273223877 205.6361999511719 2.856126308441162 213.2391510009766 0.0009178873733617365 L 308.5001831054688 0.0009178873733617365 C 311.5719909667969 0.0009178873733617365 314.4598999023438 1.197167873382568 316.6320190429688 3.369251251220703 C 318.8041687011719 5.541376113891602 320.0003967285156 8.42933464050293 320.0003967285156 11.50108432769775 L 320.0003967285156 75.0015869140625 Z" stroke="none" fill="#ccc"/>
      </g>
    </g>
  </g>
</svg>
