<svg width="375" height="70" viewBox="0 0 375 70" fill="none" xmlns="http://www.w3.org/2000/svg">
<mask id="path-1-inside-1_7_627" fill="white">
<path fill-rule="evenodd" clip-rule="evenodd" d="M132.854 0H11.5C5.14873 0 0 5.14873 0 11.5V79H375V11.5C375 5.14873 369.851 0 363.5 0H239.239C232.57 2.50498 228.746 9.43524 226.985 17.5781C223 36 207.774 51 186 51C164.226 51 149 36 145.675 17.6429C144.197 9.48285 139.784 2.51385 132.854 0Z"/>
</mask>
<path fill-rule="evenodd" clip-rule="evenodd" d="M132.854 0H11.5C5.14873 0 0 5.14873 0 11.5V79H375V11.5C375 5.14873 369.851 0 363.5 0H239.239C232.57 2.50498 228.746 9.43524 226.985 17.5781C223 36 207.774 51 186 51C164.226 51 149 36 145.675 17.6429C144.197 9.48285 139.784 2.51385 132.854 0Z" fill="white"/>
<path d="M132.854 0L133.246 -1.08107L133.056 -1.15H132.854V0ZM0 79H-1.15V80.15H0V79ZM375 79V80.15H376.15V79H375ZM239.239 0V-1.15H239.03L238.834 -1.07656L239.239 0ZM226.985 17.5781L228.109 17.8213L228.109 17.8213L226.985 17.5781ZM145.675 17.6429L146.806 17.4379L146.806 17.4379L145.675 17.6429ZM11.5 1.15H132.854V-1.15H11.5V1.15ZM1.15 11.5C1.15 5.78385 5.78385 1.15 11.5 1.15V-1.15C4.5136 -1.15 -1.15 4.5136 -1.15 11.5H1.15ZM1.15 79V11.5H-1.15V79H1.15ZM375 77.85H0V80.15H375V77.85ZM373.85 11.5V79H376.15V11.5H373.85ZM363.5 1.15C369.216 1.15 373.85 5.78385 373.85 11.5H376.15C376.15 4.5136 370.486 -1.15 363.5 -1.15V1.15ZM239.239 1.15H363.5V-1.15H239.239V1.15ZM238.834 -1.07656C231.611 1.63676 227.65 9.06127 225.861 17.335L228.109 17.8213C229.842 9.80921 233.529 3.37321 239.643 1.07656L238.834 -1.07656ZM225.861 17.335C221.977 35.2909 207.17 49.85 186 49.85V52.15C208.377 52.15 224.023 36.7091 228.109 17.8213L225.861 17.335ZM186 49.85C164.823 49.85 150.04 35.2886 146.806 17.4379L144.543 17.8478C147.96 36.7114 163.63 52.15 186 52.15V49.85ZM146.806 17.4379C145.286 9.04399 140.699 1.62241 133.246 -1.08107L132.462 1.08107C138.869 3.40528 143.107 9.92172 144.543 17.8478L146.806 17.4379Z" fill="#CCCCCC" mask="url(#path-1-inside-1_7_627)"/>
</svg>
