<svg width="36" height="36" viewBox="0 0 36 36" fill="none" xmlns="http://www.w3.org/2000/svg">
<path fill-rule="evenodd" clip-rule="evenodd" d="M23.7954 21.7601C23.7586 21.779 23.7235 21.801 23.6904 21.826L21.7009 23.3278C21.5354 23.21 21.3574 23.0823 21.1694 22.9462C20.4498 22.4257 19.7303 21.8903 19.0601 21.3705C18.8613 21.2163 18.6694 21.0655 18.4853 20.9186C17.6827 20.2781 17.0504 19.7297 16.6406 19.3101C15.2269 17.8866 14.1485 16.6711 13.3585 15.6605C13.1129 15.3464 12.9128 15.0742 12.7541 14.844L12.8107 14.7484C13.0245 14.3872 13.2383 14.0247 13.4379 13.6844L13.4571 13.6515C13.8655 12.9551 14.1567 12.4499 14.2898 12.2029C14.7469 11.3553 14.8573 10.4579 14.4537 9.81386C14.0125 9.11072 10.7702 4.15948 10.4651 3.73373C9.86431 2.91374 8.54453 2.78359 7.48994 3.49921C5.47607 4.86576 3.00305 7.17925 3.0305 8.45301C3.04349 9.04943 3.07789 9.46229 3.2052 10.1017C3.389 11.0249 3.72471 12.046 4.25224 13.1862C5.63717 16.1793 8.18028 19.6563 12.1725 23.6696C16.1646 27.6829 19.6367 30.2565 22.637 31.6782C23.7797 32.2196 24.8049 32.5695 25.7332 32.7676C26.377 32.905 26.7993 32.9469 27.3951 32.9695C28.6743 33.0179 31.0318 30.6314 32.4631 28.6475C33.2156 27.6045 33.1098 26.2736 32.2728 25.6769C31.8201 25.3541 26.7775 21.9932 26.1942 21.6275C25.5432 21.2313 24.645 21.324 23.7954 21.7601ZM21.303 24.8099C21.5586 24.9882 21.8999 24.9818 22.1486 24.794L24.5053 23.0151C24.9327 22.8077 25.3063 22.7728 25.4374 22.8526C25.9891 23.1985 31.0081 26.5437 31.4368 26.8494C31.5757 26.9484 31.6092 27.3699 31.2953 27.805C30.9214 28.3233 30.0871 29.3039 29.3439 30.0563C28.4412 30.97 27.6643 31.5386 27.4496 31.5305C26.2101 31.4836 25.0809 31.2426 23.2536 30.3768C20.4147 29.0317 17.0749 26.5561 13.1934 22.6541C9.31295 18.7531 6.86809 15.4105 5.55913 12.5815C4.71807 10.7637 4.49699 9.65329 4.47016 8.42181C4.4658 8.21917 5.05478 7.45886 5.99006 6.58391C6.7655 5.8585 7.77406 5.04664 8.2985 4.69078C8.74675 4.3866 9.19038 4.43035 9.29906 4.57867C9.5785 4.9687 12.8072 9.89912 13.2337 10.5789C13.3066 10.6951 13.2592 11.0803 13.0223 11.5196C12.9007 11.7452 12.6134 12.2435 12.2149 12.9232L12.1958 12.9558C11.9972 13.2944 11.7844 13.6553 11.5715 14.0149L11.3658 14.3621L11.2879 14.4932C11.1552 14.7164 11.1529 14.9938 11.2819 15.2191C11.4185 15.4575 11.7185 15.9006 12.224 16.5473C13.05 17.6039 14.1661 18.862 15.6146 20.3205C16.0704 20.7873 16.7419 21.3697 17.5871 22.0442C17.7766 22.1954 17.9737 22.3503 18.1777 22.5085C18.8619 23.0391 19.5937 23.5837 20.3254 24.1129C20.5813 24.2981 20.819 24.4682 21.0325 24.6194C21.161 24.7105 21.2532 24.7752 21.303 24.8099Z" fill="#333333"/>
<mask id="mask0_0_234" style="mask-type:alpha" maskUnits="userSpaceOnUse" x="3" y="3" width="30" height="30">
<path fill-rule="evenodd" clip-rule="evenodd" d="M23.7954 21.7601C23.7586 21.779 23.7235 21.801 23.6904 21.826L21.7009 23.3278C21.5354 23.21 21.3574 23.0823 21.1694 22.9462C20.4498 22.4257 19.7303 21.8903 19.0601 21.3705C18.8613 21.2163 18.6694 21.0655 18.4853 20.9186C17.6827 20.2781 17.0504 19.7297 16.6406 19.3101C15.2269 17.8866 14.1485 16.6711 13.3585 15.6605C13.1129 15.3464 12.9128 15.0742 12.7541 14.844L12.8107 14.7484C13.0245 14.3872 13.2383 14.0247 13.4379 13.6844L13.4571 13.6515C13.8655 12.9551 14.1567 12.4499 14.2898 12.2029C14.7469 11.3553 14.8573 10.4579 14.4537 9.81386C14.0125 9.11072 10.7702 4.15948 10.4651 3.73373C9.86431 2.91374 8.54453 2.78359 7.48994 3.49921C5.47607 4.86576 3.00305 7.17925 3.0305 8.45301C3.04349 9.04943 3.07789 9.46229 3.2052 10.1017C3.389 11.0249 3.72471 12.046 4.25224 13.1862C5.63717 16.1793 8.18028 19.6563 12.1725 23.6696C16.1646 27.6829 19.6367 30.2565 22.637 31.6782C23.7797 32.2196 24.8049 32.5695 25.7332 32.7676C26.377 32.905 26.7993 32.9469 27.3951 32.9695C28.6743 33.0179 31.0318 30.6314 32.4631 28.6475C33.2156 27.6045 33.1098 26.2736 32.2728 25.6769C31.8201 25.3541 26.7775 21.9932 26.1942 21.6275C25.5432 21.2313 24.645 21.324 23.7954 21.7601ZM21.303 24.8099C21.5586 24.9882 21.8999 24.9818 22.1486 24.794L24.5053 23.0151C24.9327 22.8077 25.3063 22.7728 25.4374 22.8526C25.9891 23.1985 31.0081 26.5437 31.4368 26.8494C31.5757 26.9484 31.6092 27.3699 31.2953 27.805C30.9214 28.3233 30.0871 29.3039 29.3439 30.0563C28.4412 30.97 27.6643 31.5386 27.4496 31.5305C26.2101 31.4836 25.0809 31.2426 23.2536 30.3768C20.4147 29.0317 17.0749 26.5561 13.1934 22.6541C9.31295 18.7531 6.86809 15.4105 5.55913 12.5815C4.71807 10.7637 4.49699 9.65329 4.47016 8.42181C4.4658 8.21917 5.05478 7.45886 5.99006 6.58391C6.7655 5.8585 7.77406 5.04664 8.2985 4.69078C8.74675 4.3866 9.19038 4.43035 9.29906 4.57867C9.5785 4.9687 12.8072 9.89912 13.2337 10.5789C13.3066 10.6951 13.2592 11.0803 13.0223 11.5196C12.9007 11.7452 12.6134 12.2435 12.2149 12.9232L12.1958 12.9558C11.9972 13.2944 11.7844 13.6553 11.5715 14.0149L11.3658 14.3621L11.2879 14.4932C11.1552 14.7164 11.1529 14.9938 11.2819 15.2191C11.4185 15.4575 11.7185 15.9006 12.224 16.5473C13.05 17.6039 14.1661 18.862 15.6146 20.3205C16.0704 20.7873 16.7419 21.3697 17.5871 22.0442C17.7766 22.1954 17.9737 22.3503 18.1777 22.5085C18.8619 23.0391 19.5937 23.5837 20.3254 24.1129C20.5813 24.2981 20.819 24.4682 21.0325 24.6194C21.161 24.7105 21.2532 24.7752 21.303 24.8099Z" fill="white"/>
</mask>
<g mask="url(#mask0_0_234)">
<rect width="36" height="36" fill="#E60000"/>
</g>
</svg>
