<?xml version="1.0" encoding="utf-8"?>
<!-- Generator: Adobe Illustrator 27.1.0, SVG Export Plug-In . SVG Version: 6.00 Build 0)  -->
<svg version="1.1" id="Layer_1" xmlns="http://www.w3.org/2000/svg" xmlns:xlink="http://www.w3.org/1999/xlink" x="0px" y="0px"
	 viewBox="0 0 36 34" style="enable-background:new 0 0 36 34;" xml:space="preserve">
<style type="text/css">
	.st0{fill-rule:evenodd;clip-rule:evenodd;fill:#D8D8D8;fill-opacity:1.000000e-02;}
	.st1{fill:none;stroke:#E60000;stroke-linecap:round;stroke-linejoin:round;}
	.st2{fill:none;stroke:#E60000;}
	.st3{fill:none;stroke:#E60000;stroke-linejoin:round;}
</style>
<path class="st0" d="M0,0h36v34H0V0z"/>
<g>
	<path class="st1" d="M24.5,27.6H29"/>
	<path class="st2" d="M22.5,22.4c2.6,0.9,2.6,2.3,0,3.1c-2.6,0.9-6.9,0.9-9.5,0s-2.6-2.3,0-3.1C15.6,21.6,19.9,21.6,22.5,22.4"/>
	<path class="st1" d="M24.5,24v4.2c-0.9,1-3.6,1.5-6.8,1.5S11.9,29,11,28v-4.1"/>
	<path class="st3" d="M12.5,28.9v2.8c0.9,1,3.6,1.6,6.8,1.6s5.9-0.4,6.8-1.4v-3.5c0,0,0-0.7-1.5-0.7"/>
	<path class="st3" d="M18.5,21.8V5.7l0,0c0-1.2,1-2.1,2.2-2.1h12l0,0c1.2,0,2.2,1,2.2,2.1l0,0v22.7l0,0c0,1.2-1,2.1-2.2,2.1H26"/>
	<path class="st1" d="M26.6,11.3v8.5"/>
	<path class="st1" d="M30.1,14.5l-3.4-3.2l-3.4,3.2"/>
</g>
</svg>
