<?xml version="1.0" encoding="utf-8"?>
<!-- Generator: Adobe Illustrator 27.1.0, SVG Export Plug-In . SVG Version: 6.00 Build 0)  -->
<svg version="1.1" id="Layer_1" xmlns="http://www.w3.org/2000/svg" xmlns:xlink="http://www.w3.org/1999/xlink" x="0px" y="0px"
	 viewBox="0 0 36 36" style="enable-background:new 0 0 36 36;" xml:space="preserve">
<style type="text/css">
	.st0{fill-rule:evenodd;clip-rule:evenodd;fill:#333333;}
	.st1{fill-rule:evenodd;clip-rule:evenodd;fill:#FFFFFF;filter:url(#Adobe_OpacityMaskFilter);}
	.st2{mask:url(#mask0_0_234_00000169524816723367574290000004235705742254066326_);}
	.st3{fill:#E60000;}
</style>
<path class="st0" d="M25.8,21.8c0,0-0.1,0-0.1,0.1l-2,1.5c-0.2-0.1-0.3-0.2-0.5-0.4c-0.7-0.5-1.4-1.1-2.1-1.6
	c-0.2-0.2-0.4-0.3-0.6-0.5c-0.8-0.6-1.4-1.2-1.8-1.6c-1.4-1.4-2.5-2.6-3.3-3.6c-0.2-0.3-0.4-0.6-0.6-0.8l0.1-0.1
	c0.2-0.4,0.4-0.7,0.6-1.1l0,0c0.4-0.7,0.7-1.2,0.8-1.4c0.5-0.8,0.6-1.7,0.2-2.4c-0.4-0.7-3.7-5.7-4-6.1c-0.6-0.8-1.9-1-3-0.2
	C7.5,4.9,5,7.2,5,8.5c0,0.6,0,1,0.2,1.6c0.2,0.9,0.5,1.9,1,3.1c1.4,3,3.9,6.5,7.9,10.5c4,4,7.5,6.6,10.5,8c1.1,0.5,2.2,0.9,3.1,1.1
	c0.6,0.1,1.1,0.2,1.7,0.2c1.3,0,3.6-2.3,5.1-4.3c0.8-1,0.6-2.4-0.2-3c-0.5-0.3-5.5-3.7-6.1-4C27.5,21.2,26.6,21.3,25.8,21.8z
	 M23.3,24.8c0.3,0.2,0.6,0.2,0.8,0l2.4-1.8c0.4-0.2,0.8-0.2,0.9-0.2c0.6,0.3,5.6,3.7,6,4c0.1,0.1,0.2,0.5-0.1,1
	c-0.4,0.5-1.2,1.5-2,2.3c-0.9,0.9-1.7,1.5-1.9,1.5c-1.2,0-2.4-0.3-4.2-1.2c-2.8-1.3-6.2-3.8-10.1-7.7c-3.9-3.9-6.3-7.2-7.6-10.1
	c-0.8-1.8-1.1-2.9-1.1-4.2c0-0.2,0.6-1,1.5-1.8C8.8,5.9,9.8,5,10.3,4.7c0.4-0.3,0.9-0.3,1-0.1c0.3,0.4,3.5,5.3,3.9,6
	c0.1,0.1,0,0.5-0.2,0.9c-0.1,0.2-0.4,0.7-0.8,1.4l0,0c-0.2,0.3-0.4,0.7-0.6,1.1l-0.2,0.3l-0.1,0.1c-0.1,0.2-0.1,0.5,0,0.7
	c0.1,0.2,0.4,0.7,0.9,1.3c0.8,1.1,1.9,2.3,3.4,3.8c0.5,0.5,1.1,1,2,1.7c0.2,0.2,0.4,0.3,0.6,0.5c0.7,0.5,1.4,1.1,2.1,1.6
	c0.3,0.2,0.5,0.4,0.7,0.5C23.2,24.7,23.3,24.8,23.3,24.8z"/>
<defs>
	<filter id="Adobe_OpacityMaskFilter" filterUnits="userSpaceOnUse" x="2" y="0" width="36" height="36">
		<feColorMatrix  type="matrix" values="1 0 0 0 0  0 1 0 0 0  0 0 1 0 0  0 0 0 1 0"/>
	</filter>
</defs>
<mask maskUnits="userSpaceOnUse" x="2" y="0" width="36" height="36" id="mask0_0_234_00000169524816723367574290000004235705742254066326_">
	<path class="st1" d="M25.8,21.8c0,0-0.1,0-0.1,0.1l-2,1.5c-0.2-0.1-0.3-0.2-0.5-0.4c-0.7-0.5-1.4-1.1-2.1-1.6
		c-0.2-0.2-0.4-0.3-0.6-0.5c-0.8-0.6-1.4-1.2-1.8-1.6c-1.4-1.4-2.5-2.6-3.3-3.6c-0.2-0.3-0.4-0.6-0.6-0.8l0.1-0.1
		c0.2-0.4,0.4-0.7,0.6-1.1l0,0c0.4-0.7,0.7-1.2,0.8-1.4c0.5-0.8,0.6-1.7,0.2-2.4c-0.4-0.7-3.7-5.7-4-6.1c-0.6-0.8-1.9-1-3-0.2
		C7.5,4.9,5,7.2,5,8.5c0,0.6,0,1,0.2,1.6c0.2,0.9,0.5,1.9,1,3.1c1.4,3,3.9,6.5,7.9,10.5c4,4,7.5,6.6,10.5,8c1.1,0.5,2.2,0.9,3.1,1.1
		c0.6,0.1,1.1,0.2,1.7,0.2c1.3,0,3.6-2.3,5.1-4.3c0.8-1,0.6-2.4-0.2-3c-0.5-0.3-5.5-3.7-6.1-4C27.5,21.2,26.6,21.3,25.8,21.8z
		 M23.3,24.8c0.3,0.2,0.6,0.2,0.8,0l2.4-1.8c0.4-0.2,0.8-0.2,0.9-0.2c0.6,0.3,5.6,3.7,6,4c0.1,0.1,0.2,0.5-0.1,1
		c-0.4,0.5-1.2,1.5-2,2.3c-0.9,0.9-1.7,1.5-1.9,1.5c-1.2,0-2.4-0.3-4.2-1.2c-2.8-1.3-6.2-3.8-10.1-7.7c-3.9-3.9-6.3-7.2-7.6-10.1
		c-0.8-1.8-1.1-2.9-1.1-4.2c0-0.2,0.6-1,1.5-1.8C8.8,5.9,9.8,5,10.3,4.7c0.4-0.3,0.9-0.3,1-0.1c0.3,0.4,3.5,5.3,3.9,6
		c0.1,0.1,0,0.5-0.2,0.9c-0.1,0.2-0.4,0.7-0.8,1.4l0,0c-0.2,0.3-0.4,0.7-0.6,1.1l-0.2,0.3l-0.1,0.1c-0.1,0.2-0.1,0.5,0,0.7
		c0.1,0.2,0.4,0.7,0.9,1.3c0.8,1.1,1.9,2.3,3.4,3.8c0.5,0.5,1.1,1,2,1.7c0.2,0.2,0.4,0.3,0.6,0.5c0.7,0.5,1.4,1.1,2.1,1.6
		c0.3,0.2,0.5,0.4,0.7,0.5C23.2,24.7,23.3,24.8,23.3,24.8z"/>
</mask>
<g class="st2">
	<rect x="2" class="st3" width="36" height="36"/>
</g>
</svg>
