<svg xmlns="http://www.w3.org/2000/svg" width="32.667" height="29.5" viewBox="0 0 32.667 29.5">
  <g id="More_Menu_Contact_Us_Large_Format" data-name="More Menu Contact Us Large Format" transform="translate(0.5 0.5)">
    <g id="Contact_Us_International" data-name="Contact Us International" transform="translate(0 0)">
      <g id="Group_5" data-name="Group 5">
        <g id="Group_7" data-name="Group 7">
          <path id="Path" d="M6.99,22.152C2.773,19.977,0,16.29,0,12.108,0,5.417,7.083,0,15.833,0S31.667,5.417,31.667,12.108,24.583,24.217,15.833,24.217H15.5l-1.99,1.14C11.106,26.5,6.75,27.831,3.24,27.035a7.869,7.869,0,0,0,3.729-4.663l.054-.208Z" transform="translate(0 0)" fill="none" stroke="#333" stroke-linecap="round" stroke-linejoin="round" stroke-miterlimit="10" stroke-width="1"/>
        </g>
        <g id="Oval" transform="translate(7.111 11.556)" fill="#333" stroke="#333" stroke-miterlimit="10" stroke-width="1">
          <circle cx="1.333" cy="1.333" r="1.333" stroke="none"/>
          <circle cx="1.333" cy="1.333" r="0.833" fill="none"/>
        </g>
        <g id="Oval_Copy" data-name="Oval Copy" transform="translate(14.222 11.556)" fill="#333" stroke="#333" stroke-miterlimit="10" stroke-width="1">
          <circle cx="1.333" cy="1.333" r="1.333" stroke="none"/>
          <circle cx="1.333" cy="1.333" r="0.833" fill="none"/>
        </g>
        <g id="Oval_Copy_2" data-name="Oval Copy 2" transform="translate(21.333 11.556)" fill="#333" stroke="#333" stroke-miterlimit="10" stroke-width="1">
          <circle cx="1.333" cy="1.333" r="1.333" stroke="none"/>
          <circle cx="1.333" cy="1.333" r="0.833" fill="none"/>
        </g>
      </g>
    </g>
  </g>
</svg>
