<svg xmlns="http://www.w3.org/2000/svg" width="38.501" height="32.501" viewBox="0 0 38.501 32.501">
  <g id="More_Menu_FAQs_Large_Format" data-name="More Menu FAQs Large Format" transform="translate(0.501 0.501)">
    <g id="Group_3" data-name="Group 3">
      <path id="_8b647ed5-50b9-46ea-aeca-c922f27b9e6b" data-name="8b647ed5-50b9-46ea-aeca-c922f27b9e6b" d="M16.417.629,15.871.47a14.525,14.525,0,0,0-4.6-.44,14.674,14.674,0,0,0-4.529,1,12.544,12.544,0,0,0-3.629,2.2A9.609,9.609,0,0,0,.743,6.306,7.525,7.525,0,0,0,.009,9.933,7.405,7.405,0,0,0,1.1,13.454a9.293,9.293,0,0,0,2.661,2.761,12.184,12.184,0,0,0,3.827,1.736,14.5,14.5,0,0,0,4.6.44h.149a12.923,12.923,0,0,0,1.639.949,12.424,12.424,0,0,0,2.155.81,11.9,11.9,0,0,0,2.629.4,12.436,12.436,0,0,0,3.06-.245s-3.211-1.864-3.3-3.788a11.79,11.79,0,0,0,2.111-1.575,9.871,9.871,0,0,0,1.59-1.913,8.22,8.22,0,0,0,.978-2.172,7.337,7.337,0,0,0-.836-5.87,8.851,8.851,0,0,0-1.621-1.937,15.187,15.187,0,0,0-4.321-2.4" transform="translate(13.716 10.758)" fill="none" stroke="#333" stroke-linecap="round" stroke-linejoin="round" stroke-miterlimit="10" stroke-width="1"/>
      <path id="_73e43e76-3723-4c82-a239-629e1c0146f9" data-name="73e43e76-3723-4c82-a239-629e1c0146f9" d="M29.712,11.265s.066-.347.086-.462a6.882,6.882,0,0,0-1.164-4.476,11.866,11.866,0,0,0-3.4-3.519,15.652,15.652,0,0,0-4.891-2.2,18.655,18.655,0,0,0-5.9-.57,18.846,18.846,0,0,0-5.8,1.277A16.063,16.063,0,0,0,4,4.112,12.253,12.253,0,0,0,.966,8.025,9.562,9.562,0,0,0,.01,12.649a9.225,9.225,0,0,0,.636,2.935,10.184,10.184,0,0,0,1.516,2.6,12.194,12.194,0,0,0,2.267,2.174,23.1,23.1,0,0,0,3.725,1.886A12.355,12.355,0,0,1,3.6,27.336a16.026,16.026,0,0,0,3.913-.157,15.471,15.471,0,0,0,2.69-.7,35.012,35.012,0,0,0,4.158-2.084l.4-.218" transform="translate(0 0)" fill="none" stroke="#333" stroke-linecap="round" stroke-linejoin="round" stroke-miterlimit="10" stroke-width="1"/>
    </g>
  </g>
</svg>
