<svg width="62" height="47" viewBox="0 0 62 47" fill="none" xmlns="http://www.w3.org/2000/svg">
<path d="M12.4744 2.81553V10.4815C12.4744 11.5861 11.5829 12.4815 10.4783 12.4815C7.1915 12.4815 1 12.4815 1 12.4815C1 12.4815 12.4744 1 12.4744 1H38.1011C39.2057 1 40.1011 1.89543 40.1011 3V43.9551C40.1011 45.0596 39.2057 45.9551 38.1011 45.9551H3C1.89543 45.9551 1 45.0596 1 43.9551V15.3031" stroke="#979797" stroke-linecap="round" stroke-linejoin="round"/>
<path d="M8.41577 17.2885H13.809" stroke="#979797" stroke-linecap="round"/>
<path d="M25.2698 28.5393L30.4273 28.5285" stroke="#979797" stroke-linecap="round"/>
<path d="M17.1799 40L22.3374 39.9891" stroke="#979797" stroke-linecap="round"/>
<path d="M8.41577 40L13.5733 39.9891" stroke="#979797" stroke-linecap="round"/>
<path d="M17.854 17.0787L30.4308 17.0678" stroke="#979797" stroke-linecap="round"/>
<path d="M8.41577 28.5393L20.9926 28.5285" stroke="#979797" stroke-linecap="round"/>
<path d="M8.49858 23.1352H30.4233" stroke="#979797" stroke-linecap="round"/>
<path d="M8.49744 34.5959H25.0334" stroke="#979797" stroke-linecap="round"/>
<rect x="38.0786" y="20.618" width="4.7191" height="14.8315" fill="white"/>
<path fill-rule="evenodd" clip-rule="evenodd" d="M57.5131 7.84528C57.1235 7.45307 56.4895 7.4514 56.0979 7.84155L30.0315 33.8072L28.5806 38.2764C28.3267 39.0583 29.0723 39.7955 29.8513 39.5328L34.284 38.0377L54.5206 17.8268L60.2944 12.0603C60.6844 11.6708 60.6856 11.0391 60.2972 10.648L57.5131 7.84528Z" fill="white" stroke="#979797"/>
<path d="M32.3483 35.7865L55.9438 12.191" stroke="#979797"/>
<path d="M53.9213 10.1685L58.3033 14.5506" stroke="#979797"/>
<path d="M29.9888 33.427L34.697 38.1283" stroke="#979797"/>
</svg>
