<svg xmlns="http://www.w3.org/2000/svg" width="69.872" height="61.527" viewBox="0 0 69.872 61.527">
  <g id="Group_9" data-name="Group 9" transform="translate(-0.001 0)">
    <g id="Combined_Shape" data-name="Combined Shape" transform="translate(0.204 31.263) rotate(-31)" fill="none" stroke-miterlimit="10">
      <path d="M59.183,34.247H1.518A1.52,1.52,0,0,1,0,32.729V21.759H.06a4.944,4.944,0,0,0,4.868-5.007A4.945,4.945,0,0,0,.06,11.745H0V1.518A1.52,1.52,0,0,1,1.518,0H59.183A1.52,1.52,0,0,1,60.7,1.518V11.745a5.011,5.011,0,0,0,0,10.014v10.97A1.52,1.52,0,0,1,59.183,34.247Z" stroke="none"/>
      <path d="M 59.18310928344727 32.74679946899414 C 59.19183349609375 32.74679946899414 59.20140838623047 32.73722076416016 59.20140838623047 32.72850036621094 L 59.20140838623047 23.06046295166016 C 56.44555282592773 22.34392356872559 54.3927116394043 19.77598762512207 54.3927116394043 16.75259971618652 C 54.3927116394043 13.72878551483154 56.44555282592773 11.16048431396484 59.20140838623047 10.44384765625 L 59.20140838623047 1.518299698829651 C 59.20140838623047 1.509577512741089 59.19183349609375 1.499999761581421 59.18310928344727 1.499999761581421 L 1.518309831619263 1.499999761581421 C 1.510709881782532 1.499999761581421 1.500909924507141 1.508877515792847 1.500909924507141 1.518299698829651 L 1.500909924507141 10.41292762756348 C 4.320736408233643 11.08185577392578 6.428410053253174 13.67043781280518 6.428410053253174 16.75259971618652 C 6.428410053253174 19.83434295654297 4.320726871490479 22.42256546020508 1.500909924507141 23.09140014648438 L 1.500909924507141 32.72850036621094 C 1.500909924507141 32.73792266845703 1.510709881782532 32.74679946899414 1.518309831619263 32.74679946899414 L 59.18310928344727 32.74679946899414 M 59.18310928344727 34.24679946899414 L 1.518309831619263 34.24679946899414 C 0.6816098690032959 34.24679946899414 0.0009098829468712211 33.56568908691406 0.0009098829468712211 32.72850036621094 L 0.0009098829468712211 21.75930023193359 L 0.06033210456371307 21.75930023193359 C 2.744587659835815 21.75930023193359 4.928410053253174 19.5132999420166 4.928410053253174 16.75259971618652 C 4.928410053253174 13.99139976501465 2.744587659835815 11.74499988555908 0.06030988320708275 11.74499988555908 L 0.0009098829468712211 11.74499988555908 L 0.0009098829468712211 1.518299698829651 C 0.0009098829468712211 0.6811108589172363 0.6816098690032959 -2.655029334164283e-07 1.518309831619263 -2.655029334164283e-07 L 59.18310928344727 -2.655029334164283e-07 C 60.02029800415039 -2.655029334164283e-07 60.70140838623047 0.6811108589172363 60.70140838623047 1.518299698829651 L 60.70140838623047 11.74537754058838 C 58.04943084716797 11.77804374694824 55.8927116394043 14.02383327484131 55.8927116394043 16.75259971618652 C 55.8927116394043 19.48044395446777 58.04987716674805 21.72625541687012 60.70140838623047 21.7589111328125 L 60.70140838623047 32.72850036621094 C 60.70140838623047 33.56568908691406 60.02029800415039 34.24679946899414 59.18310928344727 34.24679946899414 Z" stroke="none" fill="#333"/>
    </g>
    <g id="Rectangle" transform="translate(14.591 32.327) rotate(-31)" fill="none" stroke-miterlimit="10">
      <path d="M.2.62A.246.246,0,0,1,.443.378L30.351,0A.246.246,0,0,1,30.6.252l-.2,16a.246.246,0,0,1-.242.242L.252,16.87A.246.246,0,0,1,0,16.622Z" stroke="none"/>
      <path d="M 29.08349227905273 1.519130706787109 L 1.685571670532227 1.862115859985352 L 1.518884658813477 15.35437393188477 L 28.91680526733398 15.01138877868652 L 29.08349227905273 1.519130706787109 M 30.35380363464355 0.003131866455078125 C 30.4903678894043 0.003131866455078125 30.60095596313477 0.1147670745849609 30.59926795959473 0.2517127990722656 L 30.40157890319824 16.25345230102539 C 30.39992904663086 16.38668251037598 30.29233932495117 16.49428176879883 30.15911865234375 16.49595260620117 L 0.2517185211181641 16.87035179138184 C 0.1133975982666016 16.8720817565918 0.001407623291015625 16.7597827911377 0.003108978271484375 16.62179183959961 L 0.2007980346679688 0.6200523376464844 C 0.2024383544921875 0.4868221282958984 0.310028076171875 0.3792228698730469 0.4432582855224609 0.3775520324707031 L 30.35065841674805 0.003152847290039062 C 30.35170364379883 0.003139495849609375 30.35276222229004 0.003131866455078125 30.35380363464355 0.003131866455078125 Z" stroke="none" fill="#333"/>
    </g>
    <g id="Combined_Shape-2" data-name="Combined Shape" transform="translate(0 27.28)" fill="#fff" stroke-miterlimit="10">
      <path d="M 59.18310546875 33.49679946899414 L 1.518304347991943 33.49679946899414 C 1.095154285430908 33.49679946899414 0.7509043216705322 33.15214157104492 0.7509043216705322 32.72850036621094 L 0.7509043216705322 22.46603965759277 C 3.524236679077148 22.11627197265625 5.678404331207275 19.6873950958252 5.678404331207275 16.75259971618652 C 5.678404331207275 13.81735134124756 3.524245977401733 11.38809204101562 0.7509043216705322 11.03826808929443 L 0.7509043216705322 1.518299698829651 C 0.7509043216705322 1.094659686088562 1.095154285430908 0.7499997615814209 1.518304347991943 0.7499997615814209 L 59.18310546875 0.7499997615814209 C 59.60674285888672 0.7499997615814209 59.9514045715332 1.094659686088562 59.9514045715332 1.518299698829651 L 59.9514045715332 11.0550365447998 C 57.24047470092773 11.46086025238037 55.14270401000977 13.87329769134521 55.14270401000977 16.75259971618652 C 55.14270401000977 19.63146209716797 57.2404670715332 22.04350662231445 59.9514045715332 22.44926261901855 L 59.9514045715332 32.72850036621094 C 59.9514045715332 33.15214157104492 59.60674285888672 33.49679946899414 59.18310546875 33.49679946899414 Z" stroke="none"/>
      <path d="M 59.18310928344727 32.74679946899414 C 59.19183349609375 32.74679946899414 59.20140838623047 32.73722076416016 59.20140838623047 32.72850036621094 L 59.20140838623047 23.06046295166016 C 56.44555282592773 22.34392356872559 54.3927116394043 19.77598762512207 54.3927116394043 16.75259971618652 C 54.3927116394043 13.72878551483154 56.44555282592773 11.16048431396484 59.20140838623047 10.44384765625 L 59.20140838623047 1.518299698829651 C 59.20140838623047 1.509577512741089 59.19183349609375 1.499999761581421 59.18310928344727 1.499999761581421 L 1.518309831619263 1.499999761581421 C 1.510709881782532 1.499999761581421 1.500909924507141 1.508877515792847 1.500909924507141 1.518299698829651 L 1.500909924507141 10.41292762756348 C 4.320736408233643 11.08185577392578 6.428410053253174 13.67043781280518 6.428410053253174 16.75259971618652 C 6.428410053253174 19.83434295654297 4.320726871490479 22.42256546020508 1.500909924507141 23.09140014648438 L 1.500909924507141 32.72850036621094 C 1.500909924507141 32.73792266845703 1.510709881782532 32.74679946899414 1.518309831619263 32.74679946899414 L 59.18310928344727 32.74679946899414 M 59.18310928344727 34.24679946899414 L 1.518309831619263 34.24679946899414 C 0.6816098690032959 34.24679946899414 0.0009098829468712211 33.56568908691406 0.0009098829468712211 32.72850036621094 L 0.0009098829468712211 21.75930023193359 L 0.06033210456371307 21.75930023193359 C 2.744587659835815 21.75930023193359 4.928410053253174 19.5132999420166 4.928410053253174 16.75259971618652 C 4.928410053253174 13.99139976501465 2.744587659835815 11.74499988555908 0.06030988320708275 11.74499988555908 L 0.0009098829468712211 11.74499988555908 L 0.0009098829468712211 1.518299698829651 C 0.0009098829468712211 0.6811108589172363 0.6816098690032959 -2.655029334164283e-07 1.518309831619263 -2.655029334164283e-07 L 59.18310928344727 -2.655029334164283e-07 C 60.02029800415039 -2.655029334164283e-07 60.70140838623047 0.6811108589172363 60.70140838623047 1.518299698829651 L 60.70140838623047 11.74537754058838 C 58.04943084716797 11.77804374694824 55.8927116394043 14.02383327484131 55.8927116394043 16.75259971618652 C 55.8927116394043 19.48044395446777 58.04987716674805 21.72625541687012 60.70140838623047 21.7589111328125 L 60.70140838623047 32.72850036621094 C 60.70140838623047 33.56568908691406 60.02029800415039 34.24679946899414 59.18310928344727 34.24679946899414 Z" stroke="none" fill="#333"/>
    </g>
    <g id="Rectangle-2" data-name="Rectangle" transform="translate(12.02 36.278)" fill="none" stroke="#333" stroke-miterlimit="10" stroke-width="1.5">
      <rect width="30.17" height="16.615" rx="0.246" stroke="none"/>
      <rect x="0.75" y="0.75" width="28.67" height="15.115" rx="0.504" fill="none"/>
    </g>
    <g id="Group_4" data-name="Group 4" transform="translate(48.462 29.631)">
      <path id="Path_3" data-name="Path 3" d="M1.346,0V2.769" fill="none" stroke="#333" stroke-linecap="round" stroke-miterlimit="10" stroke-width="1.5"/>
      <path id="Path_3-2" data-name="Path 3" d="M1.346,0V2.769" transform="translate(0 6.923)" fill="none" stroke="#333" stroke-linecap="round" stroke-miterlimit="10" stroke-width="1.5"/>
      <path id="Path_3-3" data-name="Path 3" d="M1.346,0V2.769" transform="translate(0 13.846)" fill="none" stroke="#333" stroke-linecap="round" stroke-miterlimit="10" stroke-width="1.5"/>
      <path id="Path_3-4" data-name="Path 3" d="M1.346,0V2.769" transform="translate(0 27.692)" fill="none" stroke="#333" stroke-linecap="round" stroke-miterlimit="10" stroke-width="1.5"/>
      <path id="Path_3-5" data-name="Path 3" d="M1.346,0V2.769" transform="translate(0 20.769)" fill="none" stroke="#333" stroke-linecap="round" stroke-miterlimit="10" stroke-width="1.5"/>
    </g>
    <g id="Group_4-2" data-name="Group 4" transform="translate(42.911 7.42) rotate(-30)">
      <path id="Path_3-6" data-name="Path 3" d="M1.346,0V2.769" fill="none" stroke="#333" stroke-linecap="round" stroke-miterlimit="10" stroke-width="1.5"/>
      <path id="Path_3-7" data-name="Path 3" d="M1.346,0V2.769" transform="translate(0 6.923)" fill="none" stroke="#333" stroke-linecap="round" stroke-miterlimit="10" stroke-width="1.5"/>
      <path id="Path_3-8" data-name="Path 3" d="M1.346,0V2.769" transform="translate(0 13.846)" fill="none" stroke="#333" stroke-linecap="round" stroke-miterlimit="10" stroke-width="1.5"/>
      <path id="Path_3-9" data-name="Path 3" d="M1.346,0V2.769" transform="translate(0 20.769)" fill="none" stroke="#333" stroke-linecap="round" stroke-miterlimit="10" stroke-width="1.5"/>
    </g>
  </g>
</svg>
