<svg xmlns="http://www.w3.org/2000/svg" width="72.088" height="72.317" viewBox="0 0 72.088 72.317">
  <g id="Group_5" data-name="Group 5" transform="translate(0.75 1.281)">
    <path id="_036fec7f-8a64-464d-b982-95903d4a1735" data-name="036fec7f-8a64-464d-b982-95903d4a1735" d="M35.286,41.336l4.734-3.672a3.522,3.522,0,0,1,3.314-.327c1.164.742,11.035,7.531,11.869,8.134s1.214,2.307.047,3.967-6.515,8.213-8.75,8.13S34.94,57.2,17.546,39.209.047,11.719,0,9.44,6.488,1.834,8.148.692s3.321-.706,3.88.12c.663.926,7.089,11.055,7.8,12.2a3.63,3.63,0,0,1-.388,3.364C18.757,17.634,16,22.451,16,22.451s1.886,3.34,8.307,9.977C27.366,35.657,35.286,41.336,35.286,41.336Z" transform="translate(0 12.719)" fill="none" stroke="#333" stroke-miterlimit="10" stroke-width="1.5"/>
    <path id="Path" d="M3.685,0A12.488,12.488,0,0,0,0,8.64a11.8,11.8,0,0,0,3.442,8.54" transform="translate(47.998 34.49) rotate(135)" fill="none" stroke="#333" stroke-linecap="round" stroke-linejoin="round" stroke-miterlimit="10" stroke-width="1.5"/>
    <path id="Path-2" data-name="Path" d="M6.321,0A21.405,21.405,0,0,0,0,14.814a20.224,20.224,0,0,0,5.9,14.642" transform="translate(59.031 31.995) rotate(135)" fill="none" stroke="#333" stroke-linecap="round" stroke-linejoin="round" stroke-miterlimit="10" stroke-width="1.5"/>
    <path id="Path-3" data-name="Path" d="M8.948,0A30.338,30.338,0,0,0,0,20.986,28.664,28.664,0,0,0,8.36,41.727" transform="translate(70.057 29.506) rotate(135)" fill="none" stroke="#333" stroke-linecap="round" stroke-linejoin="round" stroke-miterlimit="10" stroke-width="1.5"/>
  </g>
</svg>
